# xmcd CD database file
#
# Track frame offsets:
#	150
#	17871
#	35696
#	56172
#	68213
#	89738
#	104575
#	121633
#	139499
#	154727
#	179947
#	198026
#	216518
#	236995
#	258065
#	279452
#	298419
#
# Disc length: 4236 seconds
#
# Revision: 2
# Processed by: cddbd v1.5.2PL0 Copyright (c) Steve Scherf et al.
# Submitted via: CDex 1.70beta2
#
DISCID=18108a11
DTITLE=周杰倫 - 范特西
DYEAR=2000
DGENRE=
TTITLE0=愛在西元前
TTITLE1=爸我回來了
TTITLE2=簡單愛
TTITLE3=忍者
TTITLE4=開不了口
TTITLE5=上海一九四三
TTITLE6=對不起
TTITLE7=威廉古堡
TTITLE8=雙截棍
TTITLE9=安靜
TTITLE10=可愛女人
TTITLE11=完美主義
TTITLE12=娘子
TTITLE13=鬥牛
TTITLE14=黑色幽默
TTITLE15=龍捲風
TTITLE16=反方向的鍾
EXTD=YEAR: 2000
EXTT0=
EXTT1=
EXTT2=
EXTT3=
EXTT4=
EXTT5=
EXTT6=
EXTT7=
EXTT8=
EXTT9=
EXTT10=
EXTT11=
EXTT12=
EXTT13=
EXTT14=
EXTT15=
EXTT16=
PLAYORDER=
